<svg xmlns="http://www.w3.org/2000/svg" width="512" height="512"><path fill="#16DD00" d="M283.3 221c8.5-23.2 22.8-48.1 46.8-72.1C387.5 91.6 450.9 89 481.2 91.8c2.9 30.4.3 93.7-57.1 151.1-9 9-18.1 16.6-27.2 23 5.2 4.3 10.3 8.9 15.4 14 2.4 2.4 4.7 4.8 6.9 7.2 8.8-6.6 17.6-14.2 26.3-22.9 91.8-91.8 61.9-198.6 61.9-198.6S386.8 39 295 130.9c-31.1 31.1-46.6 63.5-53.5 92.7 7.6-1.4 22.5-3.6 41.8-2.6zm89.4 59.6C332.2 301.3 294.4 302 273 300c-1.2-12.8-1.4-31.4 2.9-52.8-1.9.1-3.6.2-5.3.4L240.5 228c-11.6 55.2 6.8 98.1 6.8 98.1s72.3 20.4 149.2-23.9c-1-1.1-2-2.2-3.1-3.2-7.1-7.1-13.9-13.1-20.7-18.4z"/><path fill="#16DD00" d="M401.2 287.6c51 51 53.3 107.2 50.7 134.2-26.9 2.5-83.3.2-134.2-50.7-51-51-41.8-107.8-39.2-134.8 26.9-2.6 71.7.3 122.7 51.3m19-19c-81.6-81.6-176.4-55-176.4-55s-34.9 97 46.6 178.5S475.2 445 475.2 445s26.6-94.8-55-176.4z"/><path fill="#00B7FF" d="M267.9 213.6s-92.4-25.9-173.2 51.8c7.2 6.2 14.5 11.6 21.7 16.3 48.5-45.4 90.8-48 116.7-45.6 2.6 27 11.8 83.8-39.2 134.8-51 51.1-107.3 53.4-134.3 50.9-2.3-24.1-.7-71.4 35.9-117.6-7.1-4.9-14.2-10.3-21.2-16.4C13.8 364.3 36.4 445 36.4 445s103.2 28.7 184.8-52.9 46.7-178.5 46.7-178.5z"/><path fill="#00B7FF" d="M87.9 242.9c-57.4-57.4-60-120.6-57.1-151.1 30.3-2.8 93.7-.3 151.1 57.1s60 120.6 57.1 151.1c-30.3 2.8-93.7.2-151.1-57.1m-21.3 21.3C158.4 356 264.4 326 264.4 326s44.5-103.3-47.3-195.2S4.6 65.6 4.6 65.6s-29.8 106.8 62 198.6z"/></svg>